<svg id="visual" viewBox="0 0 2048 2048" width="2048" height="2048" xmlns="http://www.w3.org/2000/svg" xmlns:xlink="http://www.w3.org/1999/xlink" version="1.1"><rect x="0" y="0" width="2048" height="2048" fill="#ffffff"></rect><defs><linearGradient id="grad1_0" x1="0%" y1="0%" x2="100%" y2="100%"><stop offset="30%" stop-color="#ffffff" stop-opacity="1"></stop><stop offset="70%" stop-color="#ffffff" stop-opacity="1"></stop></linearGradient></defs><defs><linearGradient id="grad2_0" x1="0%" y1="0%" x2="100%" y2="100%"><stop offset="30%" stop-color="#ffffff" stop-opacity="1"></stop><stop offset="70%" stop-color="#ffffff" stop-opacity="1"></stop></linearGradient></defs><g transform="translate(2048, 0)"><path d="M0 1303.3C-175 1291.2 -350.1 1279.1 -498.8 1204.1C-647.5 1129.2 -769.9 991.4 -853.5 853.5C-937.1 715.5 -981.9 577.4 -1050.5 435.1C-1119 292.8 -1211.2 146.4 -1303.3 0L0 0Z" fill="#FBAE3C"></path></g><g transform="translate(0, 2048)"><path d="M0 -1303.3C151.1 -1217.3 302.2 -1131.2 437 -1055.1C571.9 -979 690.6 -912.8 828 -828C965.5 -743.3 1121.8 -639.9 1204.1 -498.8C1286.5 -357.7 1294.9 -178.8 1303.3 0L0 0Z" fill="#FBAE3C"></path></g></svg>