<svg id="visual" viewBox="0 0 2048 1000" width="2048" height="1000" xmlns="http://www.w3.org/2000/svg" xmlns:xlink="http://www.w3.org/1999/xlink" version="1.1"><rect x="0" y="0" width="2048" height="1000" fill="#fff"></rect><path d="M0 250L85.3 245.7C170.7 241.3 341.3 232.7 512 255.3C682.7 278 853.3 332 1024 344.8C1194.7 357.7 1365.3 329.3 1536 295C1706.7 260.7 1877.3 220.3 1962.7 200.2L2048 180L2048 1001L1962.7 1001C1877.3 1001 1706.7 1001 1536 1001C1365.3 1001 1194.7 1001 1024 1001C853.3 1001 682.7 1001 512 1001C341.3 1001 170.7 1001 85.3 1001L0 1001Z" fill="#f8cb2e"></path><path d="M0 536L85.3 500.3C170.7 464.7 341.3 393.3 512 364.2C682.7 335 853.3 348 1024 354.2C1194.7 360.3 1365.3 359.7 1536 356.5C1706.7 353.3 1877.3 347.7 1962.7 344.8L2048 342L2048 1001L1962.7 1001C1877.3 1001 1706.7 1001 1536 1001C1365.3 1001 1194.7 1001 1024 1001C853.3 1001 682.7 1001 512 1001C341.3 1001 170.7 1001 85.3 1001L0 1001Z" fill="#f8b81c"></path><path d="M0 522L85.3 538.2C170.7 554.3 341.3 586.7 512 584.5C682.7 582.3 853.3 545.7 1024 539.2C1194.7 532.7 1365.3 556.3 1536 549.7C1706.7 543 1877.3 506 1962.7 487.5L2048 469L2048 1001L1962.7 1001C1877.3 1001 1706.7 1001 1536 1001C1365.3 1001 1194.7 1001 1024 1001C853.3 1001 682.7 1001 512 1001C341.3 1001 170.7 1001 85.3 1001L0 1001Z" fill="#f8a60b"></path><path d="M0 577L85.3 561.5C170.7 546 341.3 515 512 515.3C682.7 515.7 853.3 547.3 1024 579.2C1194.7 611 1365.3 643 1536 643.5C1706.7 644 1877.3 613 1962.7 597.5L2048 582L2048 1001L1962.7 1001C1877.3 1001 1706.7 1001 1536 1001C1365.3 1001 1194.7 1001 1024 1001C853.3 1001 682.7 1001 512 1001C341.3 1001 170.7 1001 85.3 1001L0 1001Z" fill="#f79200"></path><path d="M0 753L85.3 744.7C170.7 736.3 341.3 719.7 512 699.2C682.7 678.7 853.3 654.3 1024 648.5C1194.7 642.7 1365.3 655.3 1536 674.3C1706.7 693.3 1877.3 718.7 1962.7 731.3L2048 744L2048 1001L1962.7 1001C1877.3 1001 1706.7 1001 1536 1001C1365.3 1001 1194.7 1001 1024 1001C853.3 1001 682.7 1001 512 1001C341.3 1001 170.7 1001 85.3 1001L0 1001Z" fill="#f57e00"></path><path d="M0 760L85.3 773C170.7 786 341.3 812 512 807.3C682.7 802.7 853.3 767.3 1024 745.5C1194.7 723.7 1365.3 715.3 1536 735.5C1706.7 755.7 1877.3 804.3 1962.7 828.7L2048 853L2048 1001L1962.7 1001C1877.3 1001 1706.7 1001 1536 1001C1365.3 1001 1194.7 1001 1024 1001C853.3 1001 682.7 1001 512 1001C341.3 1001 170.7 1001 85.3 1001L0 1001Z" fill="#f26800"></path><path d="M0 897L85.3 885.8C170.7 874.7 341.3 852.3 512 853.8C682.7 855.3 853.3 880.7 1024 886.2C1194.7 891.7 1365.3 877.3 1536 872C1706.7 866.7 1877.3 870.3 1962.7 872.2L2048 874L2048 1001L1962.7 1001C1877.3 1001 1706.7 1001 1536 1001C1365.3 1001 1194.7 1001 1024 1001C853.3 1001 682.7 1001 512 1001C341.3 1001 170.7 1001 85.3 1001L0 1001Z" fill="#ee5007"></path></svg>